<svg id="Camada_1" data-name="Camada 1" xmlns="http://www.w3.org/2000/svg" viewBox="0 0 1620.85 1034.9"><defs><style>.cls-1,.cls-3,.cls-4{fill:#384045;}.cls-2{fill:#252f34;}.cls-3{opacity:0.47;}.cls-4{opacity:0.15;}.cls-5{opacity:0.68;}</style></defs><title>bg</title><ellipse class="cls-1" cx="174.64" cy="138.69" rx="52.58" ry="52.09"/><path class="cls-2" d="M327.66,189.1c.85-.7,1.71-1.44,2.57-2.17-1.43-.18-2.85-.42-4.25-.7a4.93,4.93,0,0,1,.29,1.76C326.64,188.3,327.29,188.8,327.66,189.1Z" transform="translate(-181.99 -41.46)"/><path class="cls-2" d="M377.57,147.5a38.9,38.9,0,0,1-2.91-4.89c.08-.17.17-.34.26-.51-1.07.48-2.18.92-3.31,1.36l-.08.12a18.07,18.07,0,0,0,2.39,5.75,15.91,15.91,0,0,0,3.5-1.66Z" transform="translate(-181.99 -41.46)"/><path class="cls-2" d="M378.53,155.56a26.27,26.27,0,0,1-3.07,3.64,24.54,24.54,0,0,0,9.54,1.41,9.1,9.1,0,0,0,.95-4.16A26.89,26.89,0,0,1,378.53,155.56Z" transform="translate(-181.99 -41.46)"/><path class="cls-2" d="M328.48,165.32a21.33,21.33,0,0,1-3.87-1s0,.08,0,.13c.16.7.5,1.95.5,1.95a26.61,26.61,0,0,0,4.12,2.34c.42-.26.82-.53,1.23-.8a17.64,17.64,0,0,1-1.7-2.89Z" transform="translate(-181.99 -41.46)"/><path class="cls-2" d="M336,153.86l-.71-.41a10.57,10.57,0,0,0,.16-2.51c.78-.28,1.41-.57,2.19-.84.23.35.36.72.59,1.08a49.12,49.12,0,0,0,8.82,1.64,46.82,46.82,0,0,1-1.84-4.47c-2,.12-4,0-6.05.11-.22-.48-.44-.74-.65-1.21-3.17,1.44-7,3.08-10.16,4.52a15.36,15.36,0,0,1,4.49-.07c.33.83.39,1.55.69,2.37A3.56,3.56,0,0,0,336,153.86Z" transform="translate(-181.99 -41.46)"/><path class="cls-2" d="M333.52,154.07a1,1,0,0,1,0,.1l2.05,1.15c1,.14,2,.24,3,.29-.84-.6-1.71-1.21-2.6-1.75A3.56,3.56,0,0,1,333.52,154.07Z" transform="translate(-181.99 -41.46)"/><path class="cls-2" d="M349.07,147.67a41.38,41.38,0,0,1,4.61-1.51A22.28,22.28,0,0,1,351,144c-.81.27-1.68.52-2.49.79a14.46,14.46,0,0,1-3,3.59h-.29a46.82,46.82,0,0,0,1.84,4.47h0A18.55,18.55,0,0,0,349.07,147.67Z" transform="translate(-181.99 -41.46)"/><path class="cls-2" d="M390.75,188.33a77.8,77.8,0,0,1-3.16,7.85,22.55,22.55,0,0,1-4.69,1.68,16.6,16.6,0,0,1,.59,2.61,12.71,12.71,0,0,0,6.27-.45c1.27-3,3.89-8.93,3.89-8.93l.31-.25c-.88-.93-1.66-2-2.54-3C391,188.13,390.75,188.33,390.75,188.33Z" transform="translate(-181.99 -41.46)"/><path class="cls-2" d="M323.13,182.34a56.06,56.06,0,0,0,1.26-7.71l1.2-.24a25.9,25.9,0,0,0,0-4.49c-1.92-.94-3.85-1.84-5.78-2.74C320.93,172.21,322,177.28,323.13,182.34Z" transform="translate(-181.99 -41.46)"/><path class="cls-2" d="M399.5,158a26.7,26.7,0,0,0-9.91-3.66c-.11.38-.23.73-.36,1.09a30.9,30.9,0,0,1,8,4.69C398,159.45,398.76,158.74,399.5,158Z" transform="translate(-181.99 -41.46)"/><path class="cls-2" d="M406.34,173.44a20.56,20.56,0,0,0-3.65-5.31c-1.84.37-3.66.76-5.5,1.14a13.75,13.75,0,0,1-2.23,3.31c.62-.07,5.31-.65,7.74-1.27a49.63,49.63,0,0,1,4.73,7.31,30.71,30.71,0,0,0,1-5.13C407.74,173.46,407,173.48,406.34,173.44Z" transform="translate(-181.99 -41.46)"/><path class="cls-2" d="M314.6,163.9c2-1.21,4-2.36,6.14-3.43a10.48,10.48,0,0,1,2.94,1c-.21-.78-.42-1.56-.63-2.3a8.91,8.91,0,0,0-2.32-1.49,71.14,71.14,0,0,0-11.9,5.48c1.07-.13,2.1-.4,3.17-.53Z" transform="translate(-181.99 -41.46)"/><path class="cls-2" d="M354,220.25c-1.19.61-2.21,1.27-3.4,1.87a71.83,71.83,0,0,0-9-.31l-2.92,2.48a35.62,35.62,0,0,0-1.17,4.45l.21,0v0a44.44,44.44,0,0,1,4.91-4.46,68,68,0,0,1,8.89.43,6.11,6.11,0,0,1,2.69-1,62.3,62.3,0,0,1,4.44,4.9c.26-.91.54-1.76.8-2.68A23.72,23.72,0,0,0,354,220.25Z" transform="translate(-181.99 -41.46)"/><path class="cls-2" d="M372.07,204.17l2.36.64c-.8-2.6-1.42-5.34-2-8l.27-.2a13.21,13.21,0,0,1-2.59-1.11l-.42.95c.34,1.64.93,3.29,1.28,4.93a4.45,4.45,0,0,0-2,0A12.86,12.86,0,0,1,372.07,204.17Z" transform="translate(-181.99 -41.46)"/><path class="cls-2" d="M372.4,214.6c1.17.46,2.34.72,3.47,1.26a57.86,57.86,0,0,0-6.38-6.13,18.19,18.19,0,0,1-3.11-.82c0,.22,0,.43-.05.64a12.13,12.13,0,0,1,3.08,3.44,17.75,17.75,0,0,0-.84,4.33,8.42,8.42,0,0,1,2,2.41c-.82,1.72-1.49,3.48-2.31,5.21.23,1.07.45,2.28.69,3.36a14.1,14.1,0,0,0,3.82.9c-.43-1-.84-1.94-1.27-3a43,43,0,0,1,1.4-4.53,6.68,6.68,0,0,1,2.43.25,28.52,28.52,0,0,1-3.9-4.72C371.73,216.32,372.07,215.48,372.4,214.6Z" transform="translate(-181.99 -41.46)"/><path class="cls-2" d="M353.7,146a22.51,22.51,0,0,1-2.62-2.17l.1,0a30.14,30.14,0,0,0,2.21-5.8,80.61,80.61,0,0,0-4.34-8.67,83.52,83.52,0,0,1,6.94,9.38,41.61,41.61,0,0,1-2.26,7.29Z" transform="translate(-181.99 -41.46)"/><path class="cls-2" d="M379.7,136.68c-.7-.87-2.09-2.72-2.09-2.72l-5.88-2.28-3-2.05-1.43.46c.63,1.46,1.09,2.77,1.72,4.23,2.49,1,5,1.77,7.46,2.77-1.26,2.3-2.83,4.52-4.29,6.7,1.2-.47,2.39-.93,3.52-1.44A21.83,21.83,0,0,1,379.7,136.68Z" transform="translate(-181.99 -41.46)"/><path class="cls-2" d="M378.8,155.69c-.92-1.92-2-3.95-2.9-5.86a12.38,12.38,0,0,1,1.52-2.16,15.91,15.91,0,0,1-3.5,1.66c.08.12.14.24.21.35a8.32,8.32,0,0,0-1.29,1.72,33,33,0,0,1,2.58,7.53l.51.18a24.94,24.94,0,0,0,2.88-3.42Z" transform="translate(-181.99 -41.46)"/><path class="cls-2" d="M338.08,155l-.49-.36c-1-.05-2-.15-3-.29l1.15.64c-.36,1.86-.72,3.74-1.08,5.59-1.93,1.43-4.09,2.9-5.9,4.51a17.64,17.64,0,0,0,1.7,2.89,71.76,71.76,0,0,0,7.58-5.73A56.57,56.57,0,0,0,338.08,155Z" transform="translate(-181.99 -41.46)"/><path class="cls-2" d="M401.5,181.32c-3.33,1.47-8.47,5.37-10.29,6.79.88,1,1.66,2.11,2.55,3a74.93,74.93,0,0,1,8.45-6,8.33,8.33,0,0,1,5.28,2.91c.1-.23.21-.45.31-.67A14.43,14.43,0,0,0,401.5,181.32Z" transform="translate(-181.99 -41.46)"/><path class="cls-2" d="M397.41,169.27a25.57,25.57,0,0,1-5.74-2.84c.48-1.29.78-2.5,1.25-3.79l.44-.35a42.65,42.65,0,0,1-4.56,1.3,10.36,10.36,0,0,1-1.39,4.45,49.72,49.72,0,0,0,7.72,4.55h.07a13.75,13.75,0,0,0,2.23-3.31Z" transform="translate(-181.99 -41.46)"/><path class="cls-2" d="M369.52,210.32a27.35,27.35,0,0,1,1.55-6.42l1,.27a12.86,12.86,0,0,0-3.16-2.84l-.22,0a21.45,21.45,0,0,0-2.22,8.09,16.69,16.69,0,0,0,3.11.92Z" transform="translate(-181.99 -41.46)"/><path class="cls-2" d="M379.94,189.31a40.09,40.09,0,0,0-8.85,3.95c-.35.77-.67,1.5-1,2.24a13.21,13.21,0,0,0,2.59,1.11,30.89,30.89,0,0,1,6.93-4.2A17.37,17.37,0,0,1,383,194.7l.5,1.24A14.25,14.25,0,0,0,379.94,189.31Z" transform="translate(-181.99 -41.46)"/><path class="cls-2" d="M334.61,181.56l0,.28c-1.85,1.54-3.77,3.21-5.62,4.75l-.14-.12c.65.64,1.33,1.23,2,1.89a21.05,21.05,0,0,0,7.24-4.43,2,2,0,0,0,0-.25A27,27,0,0,0,334.61,181.56Z" transform="translate(-181.99 -41.46)"/><path class="cls-2" d="M330.23,187.84c-.32-.25-.66-.51-.89-.71a5.64,5.64,0,0,0-.43-2.17,23.17,23.17,0,0,0-4.8,3.34c.35.6.39,1.2.74,1.81-.2.59-.49,1.11-.69,1.7a22.65,22.65,0,0,0,2.56,2.62,28.62,28.62,0,0,1-1.06,6.3,21.36,21.36,0,0,1-3.74,1.34,39.93,39.93,0,0,1-1.73,7.87,62.34,62.34,0,0,1-7.14-1.59l4.81,3.34a33.62,33.62,0,0,0,4.26,0,25.9,25.9,0,0,0,1.69-7.1c1.44-.35,2.8-.71,4.24-1.07.49-3.26.92-6.56,1.41-9.82-1.14-.68-2.43-1.38-3.58-2.06A18.43,18.43,0,0,1,330.23,187.84Z" transform="translate(-181.99 -41.46)"/><path class="cls-1" d="M1692.42,259.93c2.75,2.59,5.55,9.15,5.55,9.15l-1.47,13.45,2.27,9.52-1,6.82s1.65,4.95,2.38,7.28c-1.33,4.55-3.13,9.28-4.47,13.83a44.93,44.93,0,0,1,6.22,11.2c-2.56,17.1-12.69,33.49-27.32,42.7a55.53,55.53,0,0,0-17.25.86c-8.07,9.17-37,22.13-51.67,23.64-1.42,2.16-2.91,4.34-4.33,6.5-8.94-.19-17.68-1.07-26.23-3.71a57.39,57.39,0,0,1-4.4-10.91,75,75,0,0,0-17.35,4.55C1543,391.4,1527.63,375,1527.63,375s-2.29-13.86-4.93-20.7c-3.89-2.13-9.75-8.47-9.75-8.47a114.23,114.23,0,0,1-3.73-12.79c-2.28-1.5-3.68-2.69-6-4.18a72.22,72.22,0,0,1-4.76-25.86,73.85,73.85,0,0,1-9-8.26c-3.08-17.26,12.49-49.49,12.49-49.49s11.82-7.33,18.41-9.48c3.26-7.35,13.3-20.34,13.3-20.34s1.43-7.1,2.33-10.6a109.17,109.17,0,0,1,36.76-15.66,57.56,57.56,0,0,1,9.57,7.92,180.52,180.52,0,0,1,53,6.81,58.42,58.42,0,0,1,8.19-5.12A62.21,62.21,0,0,1,1670,213.29a38.54,38.54,0,0,1-.84,8C1680.45,231.3,1690.06,245,1692.42,259.93Z" transform="translate(-181.99 -41.46)"/><path class="cls-2" d="M1547.19,201.33c5.61,1.34,11.82,2.52,17.37.95a154.6,154.6,0,0,0-27.21,13.12A26.46,26.46,0,0,1,1538,206C1540.44,204.46,1544.33,201.94,1547.19,201.33Z" transform="translate(-181.99 -41.46)"/><path class="cls-2" d="M1643.42,207.49a169.92,169.92,0,0,1,23.51,12.56,16.4,16.4,0,0,0,1.81-5.89,94.92,94.92,0,0,0-10.54-8.66,4.27,4.27,0,0,1-2.55,2.4,9.07,9.07,0,0,1-3.47.57A36.27,36.27,0,0,1,1643.42,207.49Z" transform="translate(-181.99 -41.46)"/><path class="cls-2" d="M1506.34,283.11a24.42,24.42,0,0,0-1.08,8,87.73,87.73,0,0,0-10.5-4.65c-.86,1.79-1.7,2.42-1.48,4.39a61.32,61.32,0,0,0,11.7,7.44c1,27.77,16.43,54.09,39.86,69-1.3,2.94-3,5.53-4.28,8.47a54.32,54.32,0,0,0,12.7,11.32,124,124,0,0,0,13.93-6.85c4.27,2.25,9.09,3.62,13.66,5.17.75,3.3,1.12,6.11,1.87,9.41,2.94.57,5.94,1.39,8.88,1.95,1.78-2.49,3.53-5.4,5.32-7.9a97,97,0,0,0,58.29-21.44c6.16.33,12.72.18,18.88.09a63.8,63.8,0,0,0,13.68-15,23.45,23.45,0,0,1-10.07-13.45c-7.89,8.92-16.79,16.63-26,24.2-11,9.1-25.34,13.2-39.14,17,.18-1.38.05-3.64.23-5-17.94,4.77-37.82,1-53.38-9.1-.82.84-2.07.52-2.88,1.37-17.28-7.89-31.87-24-39.19-41.51-.92.08-2.08-1-3-.92C1510.78,311.94,1505.6,296.73,1506.34,283.11Z" transform="translate(-181.99 -41.46)"/><path class="cls-2" d="M1531.93,280.15a64.61,64.61,0,0,0,7,8.15,76.65,76.65,0,0,0,32.58-7.87c3.49-6.81,7.63-22,7.63-22,.81,0-2-15.85-5.36-23.55a232.36,232.36,0,0,0,21.36-10.22,78.93,78.93,0,0,0-14.59,17.72,60.46,60.46,0,0,0,20.81-4.62c-4,4.38-8.11,8.9-12.14,13.28a67.77,67.77,0,0,0-1.31,12.31,50.22,50.22,0,0,0,15.91,7.56l-22.57.29c-3.73,7.68-10.34,23.32-10.34,23.32s-1.92-3.41-2.77-4.83a105.44,105.44,0,0,1-18.06,6.35,168.66,168.66,0,0,0-3.3,17.65c-1.36-6.44-4.56-19.17-4.56-19.17S1535,285.37,1531.93,280.15Zm34.86-4.1c3.3-4.7,7-18.19,7-18.19s-1.38-16.58-8.69-22.48c-11.4,3.76-24.66,8.66-28.67,20a58.61,58.61,0,0,0-3,20.71l8.55,7.18C1550.26,284.09,1566.79,276.05,1566.79,276.05Zm-20.44,5.24a14,14,0,0,1-3.57-5.94,78.87,78.87,0,0,1,15.28-19.61,55.1,55.1,0,0,1,13.17,5.32,47.34,47.34,0,0,1-6,14.59A60.22,60.22,0,0,1,1546.35,281.29Zm47.83,18a10.49,10.49,0,0,1,1.6-4.78c.83-1.49,2.22-2.92,2.68-4.56a99.63,99.63,0,0,1-10.31,8.5q4.36,2.63,8.7,5.32A5,5,0,0,1,1594.18,299.28ZM1590,333.17a19.22,19.22,0,0,0,7.39,6.86c-1.78-3.44-3.42-6.79-5.2-10.22,2.29-4.06,6.23-10.43,7.64-14.87,4.15-1.74,6.14-1.75,10.62-3.14-3.4,0-6.67-.41-10.07-.44-.69-1.61-.91-3.45-1.6-5.05a90,90,0,0,1-9.33,21.92,35.29,35.29,0,0,1-17.63,1.86A27.45,27.45,0,0,0,1590,333.17Zm-2.58-6.92a29.62,29.62,0,0,0,7.29-20,40.31,40.31,0,0,0-11.57-7.18,37.46,37.46,0,0,0-9.42,3.89c-2-2.4-3.86-4.64-5.82-7q1.89,4.47,3.8,8.94a19.82,19.82,0,0,0-3.62,4.58,55.17,55.17,0,0,1-9.24-7.88,67.93,67.93,0,0,0,7.82,11,29.81,29.81,0,0,0-2.94,10.25c-2.36,1.91-4.83,3.88-7.19,5.8,2.77-.74,8.55-2.19,8.55-2.19S1577.11,329.56,1587.46,326.25Zm-.42-1.52a71.89,71.89,0,0,1-16.54,1.79,15.18,15.18,0,0,1-1.85-4.39,17.1,17.1,0,0,1,9.18-9.33,16.29,16.29,0,0,1,12.72.37,11.11,11.11,0,0,1-.1,6.31C1589.89,321.32,1588.27,323.25,1587,324.73Zm-31.36,19.9A23.17,23.17,0,0,0,1537.15,333a28.08,28.08,0,0,0-1.94,12.59C1538.08,350.68,1552.89,351.49,1555.68,344.63Zm-2.37,1.29a13.68,13.68,0,0,1-14.24.71,7.51,7.51,0,0,1,2.75-4.63C1545.25,339.57,1550.1,343.22,1553.31,345.92Zm44,23a13.73,13.73,0,0,0-19.06.25,15.21,15.21,0,0,0,9.48,3.81C1591.22,373.13,1594.52,371.05,1597.31,368.94Zm-4.61,1.86a12.45,12.45,0,0,1-9.22.22A11.9,11.9,0,0,1,1592.7,370.8Zm61.82-25s.25-9.2-1.1-13.61c-4.86-1.82-10.29-3.9-15.1-1.92A42.12,42.12,0,0,0,1619,346.56a21.34,21.34,0,0,0,5.21,10.43c5.6.12,11.07.61,16.49-.83S1654.52,345.84,1654.52,345.84Zm-28.65,9.9a7.86,7.86,0,0,1-3-4.25,17.53,17.53,0,0,1,8.25-6.4c6.43-2.51,13.39-1.75,20.08,0a47.33,47.33,0,0,1-10.79,9.92A58.71,58.71,0,0,1,1625.87,355.74Zm51.41-64.88a15.57,15.57,0,0,0,6.17-9.1c1-3.62,1.78-7.56.69-11.15-3.75-12.44-14.39-22-27-25.17a31.64,31.64,0,0,0,9.62,44.76C1670,292.15,1674.13,292.89,1677.28,290.86Zm-10.76-2.57a25.3,25.3,0,0,1-10.29-22.18,46.26,46.26,0,0,1,22.18,15.76c.91,1.2.45,3.11,0,4.55a5.6,5.6,0,0,1-2.9,3.3,7.41,7.41,0,0,1-4.44.44A12.22,12.22,0,0,1,1666.52,288.29Zm-58.59,49.59a29,29,0,0,0,6.1,4.88,12.91,12.91,0,0,0,1.06-4.78A16.47,16.47,0,0,1,1607.93,337.88Zm11.39-12.63a24.85,24.85,0,0,1,1.86,7.87,13.89,13.89,0,0,0,2.8-3.83A13.71,13.71,0,0,0,1619.32,325.25Zm24.12-2.06a4.58,4.58,0,0,1-3.31,2.88c-1.76.21-3.35-1.18-4.17-2.75s-.89-3.37-1.59-5a27.51,27.51,0,0,0,1.46,10,29.25,29.25,0,0,1,17.77,1.58,90.82,90.82,0,0,0,2.65-11.27,20.24,20.24,0,0,1-4.22,6.28,3.14,3.14,0,0,1-1.7,1.13,2.88,2.88,0,0,1-2.23-.95,9.87,9.87,0,0,1-3.18-6.79C1644.27,319.7,1644.08,321.8,1643.44,323.19ZM1684.09,283a29.63,29.63,0,0,1-2.26,6.15,10,10,0,0,1-4.59,4.54,11.26,11.26,0,0,1-6.8.36,22.4,22.4,0,0,1-13-8.15,30.64,30.64,0,0,1-6.89,7.7c2.78-1,5-2,7.67-3.23,2,1.16,3.78,2.43,5.73,3.59a29.08,29.08,0,0,1-.45,8.48,32.63,32.63,0,0,1,4-5.16c2.66.15,5.2.36,7.85.51a16.08,16.08,0,0,1,1.7,8C1680.68,299.9,1683,291.29,1684.09,283Zm-32.54-29.68a31,31,0,0,1,3.26-8.2,26.53,26.53,0,0,1-8.3-4.84C1649.3,243.76,1650.78,248.84,1651.55,253.27Zm-1.76,10.33c0-2-.06-4.07,0-6.07-3.43-.15-6.5-2.07-9.39-3.93A72.65,72.65,0,0,1,1649.79,263.6Zm-28.6-33.1a21.25,21.25,0,0,0,4.41-6.93,8.38,8.38,0,0,0-2-4.19,29.58,29.58,0,0,0-13.8,1.55,9,9,0,0,0,.78,7.38C1613.48,229.84,1617.88,230.36,1621.19,230.5Zm2.26-5.08a12.21,12.21,0,0,1-3.1,3.86,36.64,36.64,0,0,1-7.32-1.45C1615.82,225.61,1620.14,224.12,1623.45,225.42Zm-108.24,74.09a17.34,17.34,0,0,0,5.28,15.65C1520.94,309.6,1519.16,303.44,1515.21,299.51Zm34.33,53.86a11.74,11.74,0,0,0,7.26-6.64,16.51,16.51,0,0,1-16.26,3.62C1543.34,352.21,1546.33,354.36,1549.54,353.37Zm78.16-126.08a35.15,35.15,0,0,0-1.54-5.66,16.24,16.24,0,0,1,.23,3.33,79.25,79.25,0,0,1-4.34,7.17,25.62,25.62,0,0,1-11-1.66,26.16,26.16,0,0,0,12.83,3.53A47.52,47.52,0,0,0,1627.7,227.29Z" transform="translate(-181.99 -41.46)"/><path class="cls-2" d="M1537.25,367.26a20.26,20.26,0,0,1-2.07,6.43c-1-.74-2-.9-3-1.64l-3.93-15.31A40,40,0,0,0,1537.25,367.26Z" transform="translate(-181.99 -41.46)"/><path class="cls-1" d="M470.91,46.92l.25.51a.72.72,0,0,0,.54.39l.57.08a.72.72,0,0,1,.4,1.23l-.41.4a.72.72,0,0,0-.21.64l.1.56a.72.72,0,0,1-1,.76l-.51-.27a.72.72,0,0,0-.67,0l-.51.27a.72.72,0,0,1-1-.76l.1-.56a.72.72,0,0,0-.21-.64l-.41-.4a.72.72,0,0,1,.4-1.23l.57-.08a.72.72,0,0,0,.54-.39l.25-.51A.72.72,0,0,1,470.91,46.92Z" transform="translate(-181.99 -41.46)"/><path class="cls-3" d="M573.41,238.11l.25.51a.71.71,0,0,0,.54.39l.57.08a.72.72,0,0,1,.39,1.23l-.4.4a.72.72,0,0,0-.21.64l.1.56a.73.73,0,0,1-1,.76l-.5-.27a.72.72,0,0,0-.67,0l-.51.27a.72.72,0,0,1-1-.76l.09-.56a.72.72,0,0,0-.2-.64l-.41-.4a.72.72,0,0,1,.4-1.23l.56-.08a.69.69,0,0,0,.54-.39l.26-.51A.72.72,0,0,1,573.41,238.11Z" transform="translate(-181.99 -41.46)"/><path class="cls-4" d="M1104.05,212.25l.25.51a.76.76,0,0,0,.55.4l.56.08a.71.71,0,0,1,.4,1.22l-.41.4a.73.73,0,0,0-.21.64l.1.56a.72.72,0,0,1-1,.76l-.51-.27a.72.72,0,0,0-.67,0l-.5.27a.72.72,0,0,1-1-.76l.1-.56a.73.73,0,0,0-.21-.64l-.41-.4a.72.72,0,0,1,.4-1.22l.57-.08a.76.76,0,0,0,.54-.4l.25-.51A.72.72,0,0,1,1104.05,212.25Z" transform="translate(-181.99 -41.46)"/><path class="cls-1" d="M409.29,112.53l.25.51a.74.74,0,0,0,.54.4l.57.08a.72.72,0,0,1,.4,1.23l-.41.39a.73.73,0,0,0-.21.64l.1.56a.72.72,0,0,1-1,.76l-.5-.26a.72.72,0,0,0-.67,0l-.51.26a.72.72,0,0,1-1-.76l.1-.56a.73.73,0,0,0-.21-.64l-.41-.39a.72.72,0,0,1,.4-1.23l.57-.08a.74.74,0,0,0,.54-.4l.25-.51A.72.72,0,0,1,409.29,112.53Z" transform="translate(-181.99 -41.46)"/><path class="cls-1" d="M510.09,155.11l.25.51a.74.74,0,0,0,.54.4l.57.08a.72.72,0,0,1,.4,1.23l-.41.39a.73.73,0,0,0-.21.64l.1.56a.72.72,0,0,1-1,.76l-.51-.26a.72.72,0,0,0-.67,0l-.51.26a.72.72,0,0,1-1-.76l.1-.56a.73.73,0,0,0-.21-.64l-.41-.39a.72.72,0,0,1,.4-1.23L508,156a.74.74,0,0,0,.54-.4l.25-.51A.72.72,0,0,1,510.09,155.11Z" transform="translate(-181.99 -41.46)"/><path class="cls-1" d="M473.53,208.48l.25.51a.76.76,0,0,0,.55.4l.56.08a.71.71,0,0,1,.4,1.22l-.41.4a.73.73,0,0,0-.21.64l.1.56a.72.72,0,0,1-1,.76l-.51-.27a.72.72,0,0,0-.67,0l-.5.27a.72.72,0,0,1-1.05-.76l.1-.56a.73.73,0,0,0-.21-.64l-.41-.4a.72.72,0,0,1,.4-1.22l.57-.08a.76.76,0,0,0,.54-.4l.25-.51A.72.72,0,0,1,473.53,208.48Z" transform="translate(-181.99 -41.46)"/><path class="cls-1" d="M264.35,128.52l.25.51a.71.71,0,0,0,.54.39l.57.09a.71.71,0,0,1,.39,1.22l-.4.4a.72.72,0,0,0-.21.64l.1.56a.72.72,0,0,1-1,.76l-.5-.27a.72.72,0,0,0-.67,0l-.51.27a.72.72,0,0,1-1-.76l.09-.56a.72.72,0,0,0-.2-.64l-.41-.4a.71.71,0,0,1,.4-1.22l.56-.09a.69.69,0,0,0,.54-.39l.26-.51A.72.72,0,0,1,264.35,128.52Z" transform="translate(-181.99 -41.46)"/><path class="cls-1" d="M285.84,247.51l.25.51a.71.71,0,0,0,.54.39l.57.09a.71.71,0,0,1,.39,1.22l-.4.4a.72.72,0,0,0-.21.64l.1.56a.72.72,0,0,1-1.05.76l-.5-.27a.72.72,0,0,0-.67,0l-.51.27a.72.72,0,0,1-1-.76l.09-.56a.72.72,0,0,0-.2-.64l-.41-.4a.71.71,0,0,1,.4-1.22l.56-.09a.69.69,0,0,0,.54-.39l.26-.51A.72.72,0,0,1,285.84,247.51Z" transform="translate(-181.99 -41.46)"/><path class="cls-1" d="M406.67,247.51l.25.51a.72.72,0,0,0,.54.39l.57.09a.72.72,0,0,1,.4,1.22l-.41.4a.72.72,0,0,0-.21.64l.1.56a.72.72,0,0,1-1.05.76l-.5-.27a.72.72,0,0,0-.67,0l-.51.27a.72.72,0,0,1-1-.76l.1-.56a.72.72,0,0,0-.21-.64l-.41-.4a.71.71,0,0,1,.4-1.22l.56-.09a.72.72,0,0,0,.55-.39l.25-.51A.72.72,0,0,1,406.67,247.51Z" transform="translate(-181.99 -41.46)"/><path class="cls-4" d="M965.7,310.15l.25.51a.72.72,0,0,0,.54.39l.57.08a.72.72,0,0,1,.4,1.23l-.41.4a.72.72,0,0,0-.21.64l.1.56a.72.72,0,0,1-1,.76l-.51-.27a.72.72,0,0,0-.67,0l-.5.27a.73.73,0,0,1-1.05-.76l.1-.56a.72.72,0,0,0-.21-.64l-.41-.4a.72.72,0,0,1,.4-1.23l.57-.08a.72.72,0,0,0,.54-.39l.25-.51A.72.72,0,0,1,965.7,310.15Z" transform="translate(-181.99 -41.46)"/><path class="cls-3" d="M666.68,127.38l.51-.25a.74.74,0,0,0,.4-.55l.08-.56a.72.72,0,0,1,1.23-.4l.39.41a.73.73,0,0,0,.64.21l.56-.1a.72.72,0,0,1,.76,1l-.26.51a.72.72,0,0,0,0,.67l.26.5a.72.72,0,0,1-.76,1l-.56-.1a.73.73,0,0,0-.64.21l-.39.41a.72.72,0,0,1-1.23-.4l-.08-.57a.74.74,0,0,0-.4-.54l-.51-.25A.72.72,0,0,1,666.68,127.38Z" transform="translate(-181.99 -41.46)"/><path class="cls-3" d="M836.26,151.32l.51-.26a.69.69,0,0,0,.39-.54l.09-.56a.71.71,0,0,1,1.22-.4l.4.41a.72.72,0,0,0,.64.2l.56-.09a.72.72,0,0,1,.76,1l-.27.51a.7.7,0,0,0,0,.66l.27.51a.72.72,0,0,1-.76,1l-.56-.09a.72.72,0,0,0-.64.2l-.4.41a.71.71,0,0,1-1.22-.4l-.09-.56a.69.69,0,0,0-.39-.54l-.51-.26A.71.71,0,0,1,836.26,151.32Z" transform="translate(-181.99 -41.46)"/><path class="cls-3" d="M1223.88,303.11l.52-.25a.72.72,0,0,0,.39-.54l.08-.57a.72.72,0,0,1,1.23-.4l.4.41a.71.71,0,0,0,.63.21l.57-.1a.72.72,0,0,1,.75,1.05l-.26.5a.72.72,0,0,0,0,.67l.26.51a.72.72,0,0,1-.75,1l-.57-.1a.71.71,0,0,0-.63.21l-.4.41a.72.72,0,0,1-1.23-.4l-.08-.56a.72.72,0,0,0-.39-.55l-.52-.25A.72.72,0,0,1,1223.88,303.11Z" transform="translate(-181.99 -41.46)"/><path class="cls-3" d="M960.4,123.42l.51-.25a.72.72,0,0,0,.4-.54l.08-.56a.72.72,0,0,1,1.23-.4l.39.41a.73.73,0,0,0,.64.2l.56-.09a.72.72,0,0,1,.76,1l-.26.51a.7.7,0,0,0,0,.66l.26.51a.72.72,0,0,1-.76,1l-.56-.09a.73.73,0,0,0-.64.2l-.39.41a.72.72,0,0,1-1.23-.4l-.08-.56a.7.7,0,0,0-.4-.54l-.51-.26A.72.72,0,0,1,960.4,123.42Z" transform="translate(-181.99 -41.46)"/><path class="cls-4" d="M942,211.11l.51-.25a.76.76,0,0,0,.4-.54l.08-.57a.72.72,0,0,1,1.22-.4l.4.41a.73.73,0,0,0,.64.21l.56-.1a.72.72,0,0,1,.76,1l-.27.5a.72.72,0,0,0,0,.67l.27.51a.72.72,0,0,1-.76,1l-.56-.1a.73.73,0,0,0-.64.21l-.4.41a.71.71,0,0,1-1.22-.4l-.08-.57a.76.76,0,0,0-.4-.54l-.51-.25A.72.72,0,0,1,942,211.11Z" transform="translate(-181.99 -41.46)"/><path class="cls-3" d="M729.63,194.85l.51-.25a.72.72,0,0,0,.4-.54l.08-.57a.71.71,0,0,1,1.22-.39l.4.41a.73.73,0,0,0,.64.2l.56-.09a.72.72,0,0,1,.76,1l-.26.5a.72.72,0,0,0,0,.67l.26.51a.72.72,0,0,1-.76,1l-.56-.09a.73.73,0,0,0-.64.2l-.4.41a.71.71,0,0,1-1.22-.4l-.08-.56a.7.7,0,0,0-.4-.54l-.51-.26A.72.72,0,0,1,729.63,194.85Z" transform="translate(-181.99 -41.46)"/><path class="cls-3" d="M1071.7,130l.51-.25a.72.72,0,0,0,.39-.54l.08-.57a.72.72,0,0,1,1.23-.4l.4.41a.71.71,0,0,0,.63.21l.57-.1a.72.72,0,0,1,.76,1l-.27.51a.72.72,0,0,0,0,.67l.27.51a.72.72,0,0,1-.76,1l-.57-.1a.71.71,0,0,0-.63.21l-.4.41a.72.72,0,0,1-1.23-.4l-.08-.57a.72.72,0,0,0-.39-.54l-.51-.25A.72.72,0,0,1,1071.7,130Z" transform="translate(-181.99 -41.46)"/><path class="cls-1" d="M1434.15,428.57l-.51.25a.76.76,0,0,0-.4.55l-.08.56a.71.71,0,0,1-1.22.4l-.4-.41a.73.73,0,0,0-.64-.21l-.56.1a.72.72,0,0,1-.76-1l.27-.51a.72.72,0,0,0,0-.67l-.27-.5a.72.72,0,0,1,.76-1l.56.1a.73.73,0,0,0,.64-.21l.4-.41a.72.72,0,0,1,1.22.4l.08.57a.76.76,0,0,0,.4.54l.51.25A.72.72,0,0,1,1434.15,428.57Z" transform="translate(-181.99 -41.46)"/><path class="cls-1" d="M1465.26,54l.25.51a.72.72,0,0,0,.54.39l.57.08a.72.72,0,0,1,.4,1.23l-.41.4a.72.72,0,0,0-.21.64l.1.56a.73.73,0,0,1-1,.76l-.5-.27a.72.72,0,0,0-.67,0l-.51.27a.72.72,0,0,1-1-.76l.1-.56a.72.72,0,0,0-.21-.64l-.41-.4a.72.72,0,0,1,.4-1.23l.56-.08a.72.72,0,0,0,.55-.39L1464,54A.72.72,0,0,1,1465.26,54Z" transform="translate(-181.99 -41.46)"/><path class="cls-1" d="M1489.88,121.94l.25.52a.75.75,0,0,0,.54.39l.57.08a.72.72,0,0,1,.4,1.23l-.41.4a.71.71,0,0,0-.21.63l.1.57a.72.72,0,0,1-1,.75l-.5-.26a.72.72,0,0,0-.67,0l-.51.26a.72.72,0,0,1-1-.75l.1-.57a.71.71,0,0,0-.21-.63l-.41-.4a.72.72,0,0,1,.4-1.23l.56-.08a.75.75,0,0,0,.55-.39l.25-.52A.72.72,0,0,1,1489.88,121.94Z" transform="translate(-181.99 -41.46)"/><path class="cls-3" d="M1279.94,172.39l.25.51a.72.72,0,0,0,.55.39l.56.09a.71.71,0,0,1,.4,1.22l-.41.4a.72.72,0,0,0-.21.64l.1.56a.72.72,0,0,1-1,.76l-.51-.27a.72.72,0,0,0-.67,0l-.5.27a.72.72,0,0,1-1-.76l.1-.56a.72.72,0,0,0-.21-.64l-.41-.4a.72.72,0,0,1,.4-1.22l.57-.09a.72.72,0,0,0,.54-.39l.25-.51A.72.72,0,0,1,1279.94,172.39Z" transform="translate(-181.99 -41.46)"/><path class="cls-1" d="M1503.5,174.92l.25.51a.72.72,0,0,0,.54.39l.57.08a.72.72,0,0,1,.4,1.23l-.41.4a.72.72,0,0,0-.21.64l.1.56a.73.73,0,0,1-1,.76l-.5-.27a.72.72,0,0,0-.67,0l-.51.27a.72.72,0,0,1-1-.76l.1-.56a.72.72,0,0,0-.21-.64l-.41-.4a.72.72,0,0,1,.4-1.23l.57-.08a.72.72,0,0,0,.54-.39l.25-.51A.72.72,0,0,1,1503.5,174.92Z" transform="translate(-181.99 -41.46)"/><path class="cls-1" d="M1398.65,315.79l.26.51a.69.69,0,0,0,.54.39l.56.08a.72.72,0,0,1,.4,1.23l-.41.4a.7.7,0,0,0-.2.63l.09.57a.72.72,0,0,1-1,.76l-.51-.27a.7.7,0,0,0-.66,0l-.51.27a.72.72,0,0,1-1-.76l.09-.57a.7.7,0,0,0-.2-.63l-.41-.4a.72.72,0,0,1,.4-1.23l.56-.08a.71.71,0,0,0,.54-.39l.25-.51A.72.72,0,0,1,1398.65,315.79Z" transform="translate(-181.99 -41.46)"/><path class="cls-3" d="M1303.08,230.11l.26.51a.69.69,0,0,0,.54.39l.56.08a.72.72,0,0,1,.4,1.23l-.41.4a.71.71,0,0,0-.2.64l.09.56a.72.72,0,0,1-1,.76l-.51-.27a.72.72,0,0,0-.67,0l-.5.27a.72.72,0,0,1-1-.76l.09-.56a.74.74,0,0,0-.2-.64l-.41-.4a.72.72,0,0,1,.39-1.23l.57-.08a.71.71,0,0,0,.54-.39l.25-.51A.72.72,0,0,1,1303.08,230.11Z" transform="translate(-181.99 -41.46)"/><path class="cls-1" d="M1512.64,459l.25.51a.74.74,0,0,0,.54.4l.57.08a.71.71,0,0,1,.39,1.22l-.4.4a.73.73,0,0,0-.21.64l.1.56a.72.72,0,0,1-1.05.76l-.5-.26a.67.67,0,0,0-.67,0l-.51.26a.72.72,0,0,1-1-.76l.09-.56a.73.73,0,0,0-.2-.64l-.41-.4a.71.71,0,0,1,.4-1.22l.56-.08a.73.73,0,0,0,.54-.4l.26-.51A.72.72,0,0,1,1512.64,459Z" transform="translate(-181.99 -41.46)"/><path class="cls-1" d="M1764.08,156.56l.51-.26a.69.69,0,0,0,.39-.54l.09-.56a.71.71,0,0,1,1.22-.4l.4.41a.72.72,0,0,0,.64.2l.56-.09a.72.72,0,0,1,.76,1l-.27.51a.72.72,0,0,0,0,.67l.27.5a.72.72,0,0,1-.76,1.05l-.56-.1a.72.72,0,0,0-.64.21l-.4.4a.71.71,0,0,1-1.22-.39l-.09-.57a.71.71,0,0,0-.39-.54l-.51-.25A.72.72,0,0,1,1764.08,156.56Z" transform="translate(-181.99 -41.46)"/><path class="cls-4" d="M1035.21,222.18l-.25-.51a.71.71,0,0,0-.54-.39l-.57-.09a.72.72,0,0,1-.4-1.22l.41-.4a.72.72,0,0,0,.21-.64l-.1-.56a.72.72,0,0,1,1-.76l.5.27a.72.72,0,0,0,.67,0l.51-.27a.72.72,0,0,1,1,.76l-.1.56a.72.72,0,0,0,.21.64l.41.4a.71.71,0,0,1-.4,1.22l-.56.09a.69.69,0,0,0-.54.39l-.26.51A.72.72,0,0,1,1035.21,222.18Z" transform="translate(-181.99 -41.46)"/><path class="cls-1" d="M1658.35,463.18l-.25-.51a.72.72,0,0,0-.54-.39l-.57-.08a.72.72,0,0,1-.4-1.23l.41-.4a.71.71,0,0,0,.21-.63l-.1-.57a.72.72,0,0,1,1-.76l.51.27a.72.72,0,0,0,.67,0l.5-.27a.73.73,0,0,1,1.05.76l-.1.57a.71.71,0,0,0,.21.63l.41.4a.72.72,0,0,1-.4,1.23l-.57.08a.72.72,0,0,0-.54.39l-.25.51A.72.72,0,0,1,1658.35,463.18Z" transform="translate(-181.99 -41.46)"/><path class="cls-1" d="M1720,478.16l-.25-.51a.72.72,0,0,0-.54-.39l-.57-.09a.72.72,0,0,1-.4-1.22l.41-.4a.73.73,0,0,0,.21-.64l-.1-.56a.72.72,0,0,1,1-.76l.5.27a.72.72,0,0,0,.67,0l.51-.27a.72.72,0,0,1,1,.76l-.1.56a.73.73,0,0,0,.21.64l.41.4a.71.71,0,0,1-.4,1.22l-.57.09a.72.72,0,0,0-.54.39l-.25.51A.72.72,0,0,1,1720,478.16Z" transform="translate(-181.99 -41.46)"/><path class="cls-1" d="M1694.73,410.21l-.25-.51a.72.72,0,0,0-.55-.39l-.56-.09a.71.71,0,0,1-.4-1.22l.41-.4a.72.72,0,0,0,.21-.64l-.1-.56a.72.72,0,0,1,1-.76l.51.27a.72.72,0,0,0,.67,0l.5-.27a.72.72,0,0,1,1,.76l-.1.56a.72.72,0,0,0,.21.64l.41.4a.72.72,0,0,1-.4,1.22l-.57.09a.72.72,0,0,0-.54.39l-.25.51A.72.72,0,0,1,1694.73,410.21Z" transform="translate(-181.99 -41.46)"/><path class="cls-1" d="M1799.57,269.34l-.25-.51a.71.71,0,0,0-.54-.39l-.57-.09a.71.71,0,0,1-.39-1.22l.4-.4a.72.72,0,0,0,.21-.64l-.1-.56a.72.72,0,0,1,1.05-.76l.5.27a.72.72,0,0,0,.67,0l.51-.27a.72.72,0,0,1,1,.76l-.09.56a.72.72,0,0,0,.2.64l.41.4a.71.71,0,0,1-.4,1.22l-.56.09a.69.69,0,0,0-.54.39l-.26.51A.72.72,0,0,1,1799.57,269.34Z" transform="translate(-181.99 -41.46)"/><path class="cls-1" d="M1768.18,403.34l-.25-.51a.72.72,0,0,0-.54-.39l-.57-.08a.72.72,0,0,1-.4-1.23l.41-.4a.71.71,0,0,0,.21-.63l-.1-.57a.73.73,0,0,1,1-.76l.5.27a.72.72,0,0,0,.67,0l.51-.27a.72.72,0,0,1,1,.76l-.1.57a.71.71,0,0,0,.21.63l.41.4a.72.72,0,0,1-.4,1.23l-.56.08a.72.72,0,0,0-.55.39l-.25.51A.72.72,0,0,1,1768.18,403.34Z" transform="translate(-181.99 -41.46)"/><path class="cls-1" d="M1635.59,126.15l-.25-.52a.75.75,0,0,0-.54-.39l-.57-.08a.72.72,0,0,1-.4-1.23l.41-.4a.71.71,0,0,0,.21-.63l-.1-.57a.72.72,0,0,1,1.05-.75l.5.26a.72.72,0,0,0,.67,0l.51-.26a.72.72,0,0,1,1,.75l-.1.57a.71.71,0,0,0,.21.63l.41.4a.72.72,0,0,1-.4,1.23l-.56.08a.75.75,0,0,0-.55.39l-.25.52A.72.72,0,0,1,1635.59,126.15Z" transform="translate(-181.99 -41.46)"/><path class="cls-3" d="M682.9,400.51l-.25-.51a.72.72,0,0,0-.54-.39l-.57-.08a.72.72,0,0,1-.4-1.23l.41-.4a.71.71,0,0,0,.21-.63l-.1-.57a.73.73,0,0,1,1.05-.76l.5.27a.72.72,0,0,0,.67,0l.51-.27a.72.72,0,0,1,1,.76l-.1.57a.71.71,0,0,0,.21.63l.41.4a.72.72,0,0,1-.4,1.23l-.57.08a.72.72,0,0,0-.54.39l-.25.51A.72.72,0,0,1,682.9,400.51Z" transform="translate(-181.99 -41.46)"/><path class="cls-1" d="M1397.52,133.82l-.52.25a.71.71,0,0,0-.39.54l-.08.57a.72.72,0,0,1-1.23.4l-.4-.41a.71.71,0,0,0-.63-.21l-.57.1A.72.72,0,0,1,1393,134l.26-.5a.72.72,0,0,0,0-.67l-.26-.51a.71.71,0,0,1,.75-1l.57.1a.71.71,0,0,0,.63-.21l.4-.41a.72.72,0,0,1,1.23.4l.08.56a.69.69,0,0,0,.39.54l.52.26A.72.72,0,0,1,1397.52,133.82Z" transform="translate(-181.99 -41.46)"/><path class="cls-4" d="M856.49,343.4l-.51.25a.74.74,0,0,0-.4.54l-.08.57a.72.72,0,0,1-1.23.4l-.4-.41a.71.71,0,0,0-.63-.21l-.56.1a.72.72,0,0,1-.76-1l.26-.51a.72.72,0,0,0,0-.67l-.26-.5a.72.72,0,0,1,.76-1.05l.56.1a.71.71,0,0,0,.63-.21l.4-.41a.72.72,0,0,1,1.23.4l.08.57a.74.74,0,0,0,.4.54l.51.25A.72.72,0,0,1,856.49,343.4Z" transform="translate(-181.99 -41.46)"/><path class="cls-4" d="M929.69,396.41l-.51.25a.74.74,0,0,0-.4.55l-.08.56a.72.72,0,0,1-1.23.4l-.39-.41a.73.73,0,0,0-.64-.21l-.56.1a.72.72,0,0,1-.76-1l.26-.51a.72.72,0,0,0,0-.67l-.26-.5a.72.72,0,0,1,.76-1.05l.56.1a.73.73,0,0,0,.64-.21l.39-.41a.72.72,0,0,1,1.23.4l.08.57a.74.74,0,0,0,.4.54l.51.25A.72.72,0,0,1,929.69,396.41Z" transform="translate(-181.99 -41.46)"/><path class="cls-3" d="M619.77,178l.25.51a.74.74,0,0,0,.55.4l.56.08a.71.71,0,0,1,.4,1.22l-.41.4a.73.73,0,0,0-.21.64l.1.56a.72.72,0,0,1-1,.76l-.51-.26a.72.72,0,0,0-.67,0l-.5.26a.72.72,0,0,1-1-.76l.1-.56a.73.73,0,0,0-.21-.64l-.41-.4a.72.72,0,0,1,.4-1.22l.57-.08a.74.74,0,0,0,.54-.4l.25-.51A.72.72,0,0,1,619.77,178Z" transform="translate(-181.99 -41.46)"/><path class="cls-3" d="M596.36,296.39l.51-.25a.72.72,0,0,0,.39-.55l.09-.56a.71.71,0,0,1,1.22-.4l.4.41a.72.72,0,0,0,.64.21l.56-.1a.72.72,0,0,1,.76,1l-.27.51a.72.72,0,0,0,0,.67l.27.5a.72.72,0,0,1-.76,1.05l-.56-.1a.72.72,0,0,0-.64.21l-.4.41a.72.72,0,0,1-1.22-.4l-.09-.57a.72.72,0,0,0-.39-.54l-.51-.25A.72.72,0,0,1,596.36,296.39Z" transform="translate(-181.99 -41.46)"/><path class="cls-1" d="M493.5,331.59l.51-.25a.72.72,0,0,0,.39-.54l.09-.57a.72.72,0,0,1,1.22-.4l.4.41a.72.72,0,0,0,.64.21l.56-.1a.72.72,0,0,1,.76,1l-.27.51a.72.72,0,0,0,0,.67l.27.51a.72.72,0,0,1-.76,1l-.56-.1a.72.72,0,0,0-.64.21l-.4.41a.72.72,0,0,1-1.22-.4l-.09-.57a.72.72,0,0,0-.39-.54l-.51-.25A.72.72,0,0,1,493.5,331.59Z" transform="translate(-181.99 -41.46)"/><path class="cls-1" d="M454.55,285.63l-.25-.52a.71.71,0,0,0-.54-.39l-.57-.08a.72.72,0,0,1-.4-1.23l.41-.4a.71.71,0,0,0,.21-.63l-.1-.57a.73.73,0,0,1,1.05-.76l.5.27a.72.72,0,0,0,.67,0l.51-.27a.72.72,0,0,1,1,.76l-.1.57a.71.71,0,0,0,.21.63l.41.4a.72.72,0,0,1-.4,1.23l-.56.08a.69.69,0,0,0-.54.39l-.26.52A.72.72,0,0,1,454.55,285.63Z" transform="translate(-181.99 -41.46)"/><path class="cls-1" d="M377.59,343.4l-.52.25a.72.72,0,0,0-.39.54l-.08.57a.72.72,0,0,1-1.23.4l-.4-.41a.71.71,0,0,0-.63-.21l-.57.1a.72.72,0,0,1-.76-1l.27-.51a.72.72,0,0,0,0-.67l-.27-.5a.73.73,0,0,1,.76-1.05l.57.1a.71.71,0,0,0,.63-.21l.4-.41a.72.72,0,0,1,1.23.4l.08.57a.72.72,0,0,0,.39.54l.52.25A.72.72,0,0,1,377.59,343.4Z" transform="translate(-181.99 -41.46)"/><path class="cls-3" d="M757,240.63l.25.52a.71.71,0,0,0,.54.39l.57.08a.72.72,0,0,1,.4,1.23l-.41.4a.71.71,0,0,0-.21.63l.1.57a.73.73,0,0,1-1.05.76l-.5-.27a.72.72,0,0,0-.67,0l-.51.27a.72.72,0,0,1-1-.76l.1-.57a.71.71,0,0,0-.21-.63l-.41-.4a.72.72,0,0,1,.4-1.23l.56-.08a.69.69,0,0,0,.54-.39l.26-.52A.72.72,0,0,1,757,240.63Z" transform="translate(-181.99 -41.46)"/><path class="cls-4" d="M1077,281.37l.25.51a.74.74,0,0,0,.54.4l.57.08a.72.72,0,0,1,.4,1.23l-.41.39a.73.73,0,0,0-.21.64l.1.56a.72.72,0,0,1-1,.76l-.5-.26a.72.72,0,0,0-.67,0l-.51.26a.72.72,0,0,1-1-.76l.1-.56a.73.73,0,0,0-.21-.64l-.41-.39a.72.72,0,0,1,.4-1.23l.56-.08a.74.74,0,0,0,.55-.4l.25-.51A.72.72,0,0,1,1077,281.37Z" transform="translate(-181.99 -41.46)"/><path class="cls-3" d="M1185,184.32l.51-.26a.73.73,0,0,0,.4-.54l.08-.56a.71.71,0,0,1,1.22-.4l.4.41a.73.73,0,0,0,.64.2l.56-.09a.72.72,0,0,1,.76,1l-.27.51a.72.72,0,0,0,0,.67l.27.5a.72.72,0,0,1-.76,1l-.56-.09a.73.73,0,0,0-.64.2l-.4.41a.71.71,0,0,1-1.22-.4l-.08-.56a.74.74,0,0,0-.4-.54l-.51-.25A.72.72,0,0,1,1185,184.32Z" transform="translate(-181.99 -41.46)"/><path class="cls-3" d="M1226.5,232.21l.52-.25a.72.72,0,0,0,.39-.54l.08-.57a.72.72,0,0,1,1.23-.4l.4.41a.71.71,0,0,0,.63.21l.57-.1a.72.72,0,0,1,.75,1.05l-.26.5a.72.72,0,0,0,0,.67l.26.51a.72.72,0,0,1-.75,1l-.57-.1a.71.71,0,0,0-.63.21l-.4.41a.72.72,0,0,1-1.23-.4l-.08-.56a.72.72,0,0,0-.39-.55l-.52-.25A.72.72,0,0,1,1226.5,232.21Z" transform="translate(-181.99 -41.46)"/><path class="cls-3" d="M1183.9,478.51l-.25-.51a.72.72,0,0,0-.54-.39l-.57-.08a.72.72,0,0,1-.4-1.23l.41-.4a.71.71,0,0,0,.21-.63l-.1-.57a.73.73,0,0,1,1-.76l.5.27a.72.72,0,0,0,.67,0l.51-.27a.72.72,0,0,1,1,.76l-.1.57a.71.71,0,0,0,.21.63l.41.4a.72.72,0,0,1-.4,1.23l-.57.08a.72.72,0,0,0-.54.39l-.25.51A.72.72,0,0,1,1183.9,478.51Z" transform="translate(-181.99 -41.46)"/><path class="cls-3" d="M1326.69,443l-.52.25a.72.72,0,0,0-.39.54l-.08.57a.72.72,0,0,1-1.23.4l-.4-.41a.71.71,0,0,0-.63-.21l-.57.1a.72.72,0,0,1-.75-1l.26-.51a.72.72,0,0,0,0-.67l-.26-.51a.72.72,0,0,1,.75-1l.57.1a.71.71,0,0,0,.63-.21l.4-.41a.72.72,0,0,1,1.23.4l.08.57a.72.72,0,0,0,.39.54l.52.25A.72.72,0,0,1,1326.69,443Z" transform="translate(-181.99 -41.46)"/><path class="cls-3" d="M1154.54,334.7l.25.51a.71.71,0,0,0,.54.39l.57.09a.72.72,0,0,1,.4,1.22l-.41.4a.72.72,0,0,0-.21.64l.1.56a.72.72,0,0,1-1,.76l-.5-.27a.72.72,0,0,0-.67,0l-.51.27a.72.72,0,0,1-1-.76l.1-.56a.72.72,0,0,0-.21-.64l-.41-.4a.71.71,0,0,1,.4-1.22l.56-.09a.69.69,0,0,0,.54-.39l.26-.51A.72.72,0,0,1,1154.54,334.7Z" transform="translate(-181.99 -41.46)"/><path class="cls-4" d="M1036.26,348.32l.51-.26a.69.69,0,0,0,.39-.54l.09-.56a.71.71,0,0,1,1.22-.4l.4.41a.72.72,0,0,0,.64.2l.56-.09a.72.72,0,0,1,.76,1l-.27.51a.7.7,0,0,0,0,.66l.27.51a.72.72,0,0,1-.76,1l-.56-.09a.72.72,0,0,0-.64.2l-.4.41a.71.71,0,0,1-1.22-.4l-.09-.56a.69.69,0,0,0-.39-.54l-.51-.26A.71.71,0,0,1,1036.26,348.32Z" transform="translate(-181.99 -41.46)"/><path class="cls-3" d="M1297,346.83l.25.52a.73.73,0,0,0,.54.39l.57.08a.72.72,0,0,1,.39,1.23l-.4.4a.71.71,0,0,0-.21.63l.1.57a.72.72,0,0,1-1,.75l-.5-.26a.72.72,0,0,0-.67,0l-.51.26a.71.71,0,0,1-1-.75l.09-.57a.7.7,0,0,0-.2-.63l-.41-.4a.72.72,0,0,1,.4-1.23l.56-.08a.71.71,0,0,0,.54-.39l.26-.52A.72.72,0,0,1,1297,346.83Z" transform="translate(-181.99 -41.46)"/><path class="cls-1" d="M1022.34,41.86l.25.51a.74.74,0,0,0,.54.4l.57.08a.71.71,0,0,1,.39,1.22l-.4.4a.73.73,0,0,0-.21.64l.1.56a.72.72,0,0,1-1.05.76l-.5-.27a.72.72,0,0,0-.67,0l-.51.27a.72.72,0,0,1-1-.76l.09-.56a.73.73,0,0,0-.2-.64l-.41-.4a.71.71,0,0,1,.4-1.22l.56-.08a.73.73,0,0,0,.54-.4l.26-.51A.72.72,0,0,1,1022.34,41.86Z" transform="translate(-181.99 -41.46)"/><path class="cls-1" d="M432.7,349.91l.25.51a.74.74,0,0,0,.54.4l.57.08a.72.72,0,0,1,.4,1.22l-.41.4a.73.73,0,0,0-.21.64l.1.56a.72.72,0,0,1-1,.76l-.51-.26a.72.72,0,0,0-.67,0l-.51.26a.72.72,0,0,1-1-.76l.1-.56a.73.73,0,0,0-.21-.64l-.41-.4a.71.71,0,0,1,.4-1.22l.57-.08a.74.74,0,0,0,.54-.4l.25-.51A.72.72,0,0,1,432.7,349.91Z" transform="translate(-181.99 -41.46)"/><path class="cls-1" d="M225.19,466.78l.25.51a.71.71,0,0,0,.54.39l.57.08A.72.72,0,0,1,227,469l-.41.4a.72.72,0,0,0-.21.64l.1.56a.73.73,0,0,1-1.05.76l-.5-.27a.72.72,0,0,0-.67,0l-.51.27a.72.72,0,0,1-1-.76l.1-.56a.72.72,0,0,0-.21-.64l-.41-.4a.72.72,0,0,1,.4-1.23l.56-.08a.69.69,0,0,0,.54-.39l.26-.51A.72.72,0,0,1,225.19,466.78Z" transform="translate(-181.99 -41.46)"/><path class="cls-1" d="M219.89,280.06l.51-.26a.69.69,0,0,0,.39-.54l.09-.56a.71.71,0,0,1,1.22-.4l.4.41a.72.72,0,0,0,.64.2l.56-.09a.72.72,0,0,1,.76,1l-.27.51a.72.72,0,0,0,0,.67l.27.5a.71.71,0,0,1-.76,1l-.56-.09a.75.75,0,0,0-.64.2l-.4.41a.71.71,0,0,1-1.22-.39l-.09-.57a.71.71,0,0,0-.39-.54l-.51-.25A.72.72,0,0,1,219.89,280.06Z" transform="translate(-181.99 -41.46)"/><path class="cls-1" d="M182.39,364l.52-.25a.71.71,0,0,0,.39-.54l.08-.57a.72.72,0,0,1,1.23-.4l.4.41a.71.71,0,0,0,.63.21l.57-.1a.72.72,0,0,1,.75,1.05l-.26.5a.72.72,0,0,0,0,.67l.26.51a.71.71,0,0,1-.75,1l-.57-.1a.71.71,0,0,0-.63.21l-.4.41a.72.72,0,0,1-1.23-.4l-.08-.56a.69.69,0,0,0-.39-.54l-.52-.26A.72.72,0,0,1,182.39,364Z" transform="translate(-181.99 -41.46)"/><path class="cls-1" d="M331.18,286.63l.51-.25a.74.74,0,0,0,.4-.54l.08-.57a.72.72,0,0,1,1.23-.4l.39.41a.73.73,0,0,0,.64.21l.56-.1a.72.72,0,0,1,.76,1.05l-.26.5a.72.72,0,0,0,0,.67l.26.51a.72.72,0,0,1-.76,1l-.56-.1a.73.73,0,0,0-.64.21l-.39.41a.72.72,0,0,1-1.23-.4l-.08-.56a.74.74,0,0,0-.4-.55l-.51-.25A.72.72,0,0,1,331.18,286.63Z" transform="translate(-181.99 -41.46)"/><path class="cls-1" d="M294.7,351.64l-.25-.52a.75.75,0,0,0-.54-.39l-.57-.08a.72.72,0,0,1-.4-1.23l.41-.4a.71.71,0,0,0,.21-.63l-.1-.57a.72.72,0,0,1,1-.75l.51.26a.72.72,0,0,0,.67,0l.5-.26a.72.72,0,0,1,1.05.75l-.1.57a.71.71,0,0,0,.21.63l.41.4a.72.72,0,0,1-.4,1.23l-.57.08a.75.75,0,0,0-.54.39l-.25.52A.72.72,0,0,1,294.7,351.64Z" transform="translate(-181.99 -41.46)"/><path class="cls-1" d="M336.51,438l.26.52a.71.71,0,0,0,.54.39l.56.08a.72.72,0,0,1,.4,1.23l-.41.4a.7.7,0,0,0-.2.63l.09.57a.71.71,0,0,1-1,.75l-.51-.26a.72.72,0,0,0-.67,0l-.5.26a.71.71,0,0,1-1-.75l.09-.57a.7.7,0,0,0-.2-.63l-.41-.4a.72.72,0,0,1,.39-1.23l.57-.08a.73.73,0,0,0,.54-.39l.25-.52A.72.72,0,0,1,336.51,438Z" transform="translate(-181.99 -41.46)"/><path class="cls-1" d="M414,491.33l.26.51a.73.73,0,0,0,.54.4l.56.08a.71.71,0,0,1,.4,1.22l-.41.4a.73.73,0,0,0-.2.64l.09.56a.72.72,0,0,1-1,.76l-.51-.27a.72.72,0,0,0-.67,0l-.5.27a.71.71,0,0,1-1-.76l.09-.56a.76.76,0,0,0-.2-.64l-.41-.4a.71.71,0,0,1,.39-1.22l.57-.08a.74.74,0,0,0,.54-.4l.25-.51A.72.72,0,0,1,414,491.33Z" transform="translate(-181.99 -41.46)"/><path class="cls-1" d="M295.75,505l.51-.26a.69.69,0,0,0,.39-.54l.08-.56a.72.72,0,0,1,1.23-.4l.4.41a.7.7,0,0,0,.63.2l.57-.09a.72.72,0,0,1,.76,1l-.27.51a.72.72,0,0,0,0,.67l.27.5a.72.72,0,0,1-.76,1l-.57-.09a.73.73,0,0,0-.63.2l-.4.41a.72.72,0,0,1-1.23-.39l-.08-.57a.71.71,0,0,0-.39-.54l-.51-.25A.72.72,0,0,1,295.75,505Z" transform="translate(-181.99 -41.46)"/><path class="cls-4" d="M835.46,260l-.52.25a.73.73,0,0,0-.39.54l-.08.57a.72.72,0,0,1-1.23.4l-.4-.41a.71.71,0,0,0-.63-.21l-.57.1a.72.72,0,0,1-.75-1.05l.26-.5a.72.72,0,0,0,0-.67l-.26-.51a.71.71,0,0,1,.75-1l.57.1a.71.71,0,0,0,.63-.21l.4-.41a.72.72,0,0,1,1.23.4l.08.56a.71.71,0,0,0,.39.54l.52.26A.72.72,0,0,1,835.46,260Z" transform="translate(-181.99 -41.46)"/><path class="cls-4" d="M896.65,261.78l.25.51a.71.71,0,0,0,.54.39l.57.09a.72.72,0,0,1,.4,1.22l-.41.4a.72.72,0,0,0-.21.64l.1.56a.72.72,0,0,1-1,.76l-.5-.27a.72.72,0,0,0-.67,0l-.51.27a.72.72,0,0,1-1-.76l.1-.56a.72.72,0,0,0-.21-.64l-.41-.4a.71.71,0,0,1,.4-1.22l.56-.09a.69.69,0,0,0,.54-.39l.26-.51A.72.72,0,0,1,896.65,261.78Z" transform="translate(-181.99 -41.46)"/><path class="cls-4" d="M912.75,355l.52-.25a.75.75,0,0,0,.39-.54l.08-.57a.72.72,0,0,1,1.23-.4l.4.41a.71.71,0,0,0,.63.21l.57-.1a.72.72,0,0,1,.75,1.05l-.26.5a.72.72,0,0,0,0,.67l.26.51a.72.72,0,0,1-.75,1l-.57-.1a.71.71,0,0,0-.63.21l-.4.41a.72.72,0,0,1-1.23-.4l-.08-.57a.75.75,0,0,0-.39-.54l-.52-.25A.72.72,0,0,1,912.75,355Z" transform="translate(-181.99 -41.46)"/><path class="cls-3" d="M665.64,271.87l-.26-.51a.73.73,0,0,0-.54-.4l-.56-.08a.71.71,0,0,1-.4-1.22l.41-.4a.73.73,0,0,0,.2-.64l-.09-.56a.72.72,0,0,1,1-.76l.51.27a.72.72,0,0,0,.67,0l.5-.27a.71.71,0,0,1,1,.76l-.09.56a.76.76,0,0,0,.2.64l.41.4a.71.71,0,0,1-.39,1.22l-.57.08a.74.74,0,0,0-.54.4l-.25.51A.72.72,0,0,1,665.64,271.87Z" transform="translate(-181.99 -41.46)"/><path class="cls-4" d="M869.65,202.45l-.51.25a.72.72,0,0,0-.39.54l-.09.57a.72.72,0,0,1-1.22.4l-.4-.41a.72.72,0,0,0-.64-.21l-.56.1a.72.72,0,0,1-.76-1.05l.27-.5a.72.72,0,0,0,0-.67l-.27-.51a.72.72,0,0,1,.76-1l.56.1a.72.72,0,0,0,.64-.21l.4-.41a.71.71,0,0,1,1.22.4l.09.56a.72.72,0,0,0,.39.55l.51.25A.72.72,0,0,1,869.65,202.45Z" transform="translate(-181.99 -41.46)"/><path class="cls-3" d="M734.93,315.79l.25.51a.72.72,0,0,0,.54.39l.57.08a.72.72,0,0,1,.4,1.23l-.41.4a.71.71,0,0,0-.21.63l.1.57a.72.72,0,0,1-1,.76l-.51-.27a.72.72,0,0,0-.67,0l-.51.27a.72.72,0,0,1-1-.76l.1-.57a.71.71,0,0,0-.21-.63l-.41-.4a.72.72,0,0,1,.4-1.23l.57-.08a.72.72,0,0,0,.54-.39l.25-.51A.72.72,0,0,1,734.93,315.79Z" transform="translate(-181.99 -41.46)"/><path class="cls-1" d="M1420.15,242.12l.52-.26a.69.69,0,0,0,.39-.54l.08-.56a.72.72,0,0,1,1.23-.4l.4.41a.7.7,0,0,0,.63.2l.57-.09a.71.71,0,0,1,.75,1l-.26.51a.72.72,0,0,0,0,.67l.26.5a.72.72,0,0,1-.75,1.05l-.57-.1a.71.71,0,0,0-.63.21l-.4.4a.72.72,0,0,1-1.23-.39l-.08-.57a.71.71,0,0,0-.39-.54l-.52-.25A.72.72,0,0,1,1420.15,242.12Z" transform="translate(-181.99 -41.46)"/><g class="cls-5"><path class="cls-1" d="M432.67,1012.33a16.42,16.42,0,0,1-1.17,4.78l-4.85,3.9-2.36,3.83-2.54,1.89s-1.08,2.15-1.6,3.14c-1.91,1.05-4,2-5.95,3a20.54,20.54,0,0,1-1.62,5.67,28.54,28.54,0,0,1-22.76,5,25.56,25.56,0,0,0-5.89-5.33c-5.61.36-19.24-4.84-24.49-9.12l-3.52.71a43.56,43.56,0,0,1-7.32-9.73,26,26,0,0,1,2.12-5,34.54,34.54,0,0,0-7.12-4.16c-2.27-4.48-1.93-14.8-1.93-14.8a66.55,66.55,0,0,0,5.13-8.33,25.67,25.67,0,0,1-.42-5.92,53,53,0,0,1,2.95-5.38c-.26-1.23-.33-2.07-.58-3.3a33,33,0,0,1,6.86-10,33.86,33.86,0,0,1-.23-5.6c4.61-6.62,20.15-12,20.15-12s6.23,1.46,9.07,2.9c3.45-1.33,10.94-2.29,10.94-2.29s2.77-1.84,4.2-2.68a50,50,0,0,1,17,6.85,25.89,25.89,0,0,1,.54,5.69,83,83,0,0,1,15,19.45,27.75,27.75,0,0,1,4.33,1,28.51,28.51,0,0,1,3.86,13.28,18.39,18.39,0,0,1-2.87,2.33C438.09,999.13,436.76,1006.71,432.67,1012.33Z" transform="translate(-181.99 -41.46)"/><path class="cls-2" d="M404.51,946.06c1.38,2.26,3,4.66,5.34,6a71.84,71.84,0,0,0-13.12-4.58,12.1,12.1,0,0,1,3.25-2.84A16,16,0,0,1,404.51,946.06Z" transform="translate(-181.99 -41.46)"/><path class="cls-2" d="M433.79,979.35a78.88,78.88,0,0,1,3.56,11.73,7.59,7.59,0,0,0,2.51-1.33,44.86,44.86,0,0,0-.62-6.24,2,2,0,0,1-1.61,0,4.32,4.32,0,0,1-1.31-.94A16.78,16.78,0,0,1,433.79,979.35Z" transform="translate(-181.99 -41.46)"/><path class="cls-2" d="M364.63,959.37a11.16,11.16,0,0,0-2.95,2.25,38.53,38.53,0,0,0-1.91-4.92c-.86.3-1.33.23-1.9.94a28.12,28.12,0,0,0,1.38,6.22,39.9,39.9,0,0,0-9.49,35.41c-1.37.53-2.76.83-4.14,1.36a25,25,0,0,0,.45,7.81,57.23,57.23,0,0,0,6.76,2.3,42,42,0,0,0,2.76,6.12c-.83,1.32-1.62,2.36-2.46,3.68.78,1.14,1.48,2.37,2.26,3.51,1.39-.23,2.9-.6,4.29-.83a44.65,44.65,0,0,0,25.93,12c1.89,2.11,4.08,4.19,6.11,6.16a28.89,28.89,0,0,0,9.32-.42,10.79,10.79,0,0,1,1.1-7.65,102.36,102.36,0,0,1-16.32-.58c-6.54-.63-12.52-3.94-18.24-7.21.51-.39,1.2-1.16,1.71-1.56a31.11,31.11,0,0,1-14.4-20.31c-.53,0-.84-.5-1.38-.49-3.05-8.19-2.56-18.16.76-26.24-.33-.27-.35-1-.68-1.27C356.7,970.18,360,963.55,364.63,959.37Z" transform="translate(-181.99 -41.46)"/><path class="cls-2" d="M373.91,966.72a30.14,30.14,0,0,0-.37,4.93,35.38,35.38,0,0,0,13.15,8c3.35-1.08,9.63-4.67,9.63-4.67.28.25,4.51-5.81,5.92-9.41a104.31,104.31,0,0,0,10.27,3.63,36.14,36.14,0,0,0-10.51,1,28,28,0,0,0,8.27,5.26c-2.74.11-5.53.26-8.27.37a30.36,30.36,0,0,0-4.42,3.58,23.14,23.14,0,0,0,2.71,7.63l-7.43-7.24c-3.71,1.28-10.95,4.21-10.95,4.21s.49-1.73.67-2.46a49.41,49.41,0,0,1-7.93-3.81,77.39,77.39,0,0,0-6.82,4.66c1.65-2.53,4.76-7.71,4.76-7.71S373.22,969.43,373.91,966.72Zm12.67,10c2.61-.46,8.19-3.65,8.19-3.65s4.94-5.84,4.48-10.13c-4.93-2.49-10.83-5.2-15.82-2.83a26.94,26.94,0,0,0-7.71,5.75c.15,1.7.29,3.4.44,5.11C378.59,974,386.58,976.73,386.58,976.73Zm-8.35-4.94a6.45,6.45,0,0,1,.77-3.1,36.55,36.55,0,0,1,11.34-1.41,24.8,24.8,0,0,1,2.56,6,22,22,0,0,1-6.68,2.81A28,28,0,0,1,378.23,971.79Zm9.7,21.4a4.87,4.87,0,0,1,2.08-1,10.82,10.82,0,0,0,2.35-.61,45,45,0,0,1-6.12-.59q.57,2.28,1.11,4.56A2.31,2.31,0,0,1,387.93,993.19Zm-12.36,9.67a8.89,8.89,0,0,0,.17,4.63c.54-1.69,1.1-3.32,1.63-5a44.59,44.59,0,0,0,7.32-2.34,41.87,41.87,0,0,1,4.48,2.43c-1.1-1.12-2-2.3-3.13-3.42.29-.75.82-1.41,1.12-2.16a42,42,0,0,1-10.16,4.1,16.27,16.27,0,0,1-6.34-5.14A12.6,12.6,0,0,0,375.57,1002.86Zm1.41-3.09a13.64,13.64,0,0,0,8.87-4.13,18.67,18.67,0,0,0-1.43-6.09,17,17,0,0,0-4.33-1.8c.14-1.42.26-2.76.4-4.18l-1.67,4.14a9.25,9.25,0,0,0-2.67.31,25.3,25.3,0,0,1-.44-5.56,30.85,30.85,0,0,0-1,6.11,13.67,13.67,0,0,0-4.29,2.37l-4.22-.45c1.14.66,3.49,2.07,3.49,2.07S372.54,997.48,377,999.77Zm.36-.63a33.18,33.18,0,0,1-6-4.8,6.87,6.87,0,0,1,.82-2,7.94,7.94,0,0,1,6,0,7.54,7.54,0,0,1,4,4.26,5.15,5.15,0,0,1-2.09,2A7.85,7.85,0,0,1,377.34,999.14Zm-16.67-3.73a10.66,10.66,0,0,0-2.23-9.81,12.94,12.94,0,0,0-4.73,3.46C353,991.66,357.53,996.73,360.67,995.41Zm-1.19-.35a6.29,6.29,0,0,1-4.86-4.4,3.45,3.45,0,0,1,2.4-.61C358.92,990.38,359.32,993.14,359.48,995.06Zm6.82,21.79a6.3,6.3,0,0,0-6.27-6.11,7,7,0,0,0,1.84,4.32A7.26,7.26,0,0,0,366.3,1016.85Zm-2.1-.89a5.75,5.75,0,0,1-3.07-2.93A5.49,5.49,0,0,1,364.2,1016Zm28.21,12a27,27,0,0,0,4.07-4.78c-1-2.17-2.07-4.62-4.28-5.53a19.31,19.31,0,0,0-11.58-1,9.73,9.73,0,0,0-1.7,5.08c1.78,1.86,3.41,3.8,5.63,5.09S392.41,1027.94,392.41,1027.94Zm-12.53-6.1a3.62,3.62,0,0,1,.42-2.34,8.12,8.12,0,0,1,4.76.6c2.91,1.28,4.93,3.79,6.54,6.53a21.69,21.69,0,0,1-6.73-.29A26.47,26.47,0,0,1,379.88,1021.84Zm37.81-4.38a7.09,7.09,0,0,0,5-1,9.45,9.45,0,0,0,3.85-3.39,17.43,17.43,0,0,0-.6-17,14.54,14.54,0,0,0-11.42,17.67A4.62,4.62,0,0,0,417.69,1017.46Zm-2.66-4.33a11.66,11.66,0,0,1,3.86-10.56,21.24,21.24,0,0,1,2.09,12.34c-.09.69-.86,1.16-1.48,1.48a2.54,2.54,0,0,1-2,.13,3.39,3.39,0,0,1-1.58-1.3A5.5,5.5,0,0,1,415,1013.13Zm-35.17-2.92a13.44,13.44,0,0,0,.39,3.57,6.16,6.16,0,0,0,1.9-1.21A7.58,7.58,0,0,1,379.86,1010.21Zm7.8-.41a11.25,11.25,0,0,1-2,3.17,6.34,6.34,0,0,0,2.16-.34A6.31,6.31,0,0,0,387.66,1009.8Zm8.52,7.18a2.15,2.15,0,0,1-2-.14,2.09,2.09,0,0,1-.46-2.25c.25-.78.81-1.39,1.11-2.15a12.76,12.76,0,0,0-2.78,3.74,13.42,13.42,0,0,1,5.26,6.29,40.66,40.66,0,0,0,4.53-2.81,9.22,9.22,0,0,1-3.41.68,1.44,1.44,0,0,1-.92-.19,1.34,1.34,0,0,1-.42-1,4.56,4.56,0,0,1,1.17-3.24C397.58,1016.11,396.84,1016.73,396.18,1017Zm26.3.13a13.32,13.32,0,0,1-2.74,1.26,4.61,4.61,0,0,1-3,0,5.2,5.2,0,0,1-2.33-2.1,10.26,10.26,0,0,1-1.59-6.88,14,14,0,0,1-4.75.26c1.24.57,2.27,1,3.55,1.44.26,1,.44,2,.69,3a13.1,13.1,0,0,1-2.9,2.61,14.82,14.82,0,0,1,3-.38c.81.91,1.57,1.8,2.38,2.71a7.3,7.3,0,0,1-2,3.14C415.86,1021.51,419.42,1019.47,422.48,1017.11Zm-.93-20.23a14.45,14.45,0,0,1,3.72-1.61,12.16,12.16,0,0,1-1.12-4.27A13.72,13.72,0,0,1,421.55,996.88Zm-3.93,2.79c.65-.65,1.3-1.35,1.95-2a9.09,9.09,0,0,1-1.77-4.33A33.42,33.42,0,0,1,417.62,999.67Zm1.46-20.07a9.75,9.75,0,0,0,3.69-.81,3.93,3.93,0,0,0,.7-2,13.76,13.76,0,0,0-5-4,4.15,4.15,0,0,0-2.15,2.66A12.77,12.77,0,0,0,419.08,979.6Zm2.39-.91a5.77,5.77,0,0,1-2.26.25,16,16,0,0,1-1.91-2.86A5.28,5.28,0,0,1,421.47,978.69Zm-59.29-11.11a8,8,0,0,0-3.37,6.81A9.28,9.28,0,0,0,362.18,967.58Zm-6.35,28.68a5.41,5.41,0,0,0,4.52.2,7.6,7.6,0,0,1-6.46-4.11C354.19,993.87,354.47,995.54,355.83,996.26Zm66.41-15.58a16.94,16.94,0,0,0,1.34-2.34,7.42,7.42,0,0,1-1,1.16,37,37,0,0,1-3.74.91,11.79,11.79,0,0,1-3-4.12,12,12,0,0,0,3,5.32A21.93,21.93,0,0,0,422.24,980.68Z" transform="translate(-181.99 -41.46)"/><path class="cls-2" d="M347.32,996.77a8.93,8.93,0,0,1-2.76,1.42c-.1-.58-.36-.93-.45-1.51l3.7-6.26A18.33,18.33,0,0,0,347.32,996.77Z" transform="translate(-181.99 -41.46)"/></g><path class="cls-1" d="M314.9,1053.37l-.23.12a.33.33,0,0,0-.19.25l0,.26a.34.34,0,0,1-.57.18l-.18-.19a.32.32,0,0,0-.29-.09l-.26,0a.33.33,0,0,1-.35-.48l.12-.23a.34.34,0,0,0,0-.31l-.12-.23a.33.33,0,0,1,.35-.48l.26,0a.35.35,0,0,0,.29-.09l.18-.19a.33.33,0,0,1,.57.18l0,.26a.35.35,0,0,0,.19.25l.23.12A.33.33,0,0,1,314.9,1053.37Z" transform="translate(-181.99 -41.46)"/><path class="cls-1" d="M352.2,881.12l.11.23a.31.31,0,0,0,.25.18l.26,0a.33.33,0,0,1,.18.57l-.18.18a.33.33,0,0,0-.1.29l0,.26a.33.33,0,0,1-.48.35l-.24-.12a.32.32,0,0,0-.3,0l-.24.12a.33.33,0,0,1-.48-.35l.05-.26a.33.33,0,0,0-.1-.29l-.19-.18a.34.34,0,0,1,.19-.57l.26,0a.31.31,0,0,0,.25-.18l.11-.23A.33.33,0,0,1,352.2,881.12Z" transform="translate(-181.99 -41.46)"/><path class="cls-1" d="M363.52,912.38l.11.23a.33.33,0,0,0,.25.18l.26,0a.33.33,0,0,1,.19.56l-.19.19a.31.31,0,0,0-.1.29l0,.26a.34.34,0,0,1-.48.35l-.24-.13a.32.32,0,0,0-.3,0l-.24.13a.34.34,0,0,1-.48-.35l0-.26a.31.31,0,0,0-.1-.29l-.18-.19a.33.33,0,0,1,.18-.56l.26,0a.31.31,0,0,0,.25-.18l.11-.23A.33.33,0,0,1,363.52,912.38Z" transform="translate(-181.99 -41.46)"/><path class="cls-1" d="M267,935.57l.12.24a.36.36,0,0,0,.25.18l.26,0a.33.33,0,0,1,.18.56l-.19.18a.36.36,0,0,0-.09.3l0,.25a.33.33,0,0,1-.48.35l-.23-.12a.34.34,0,0,0-.31,0l-.23.12a.33.33,0,0,1-.48-.35l.05-.25a.37.37,0,0,0-.1-.3l-.19-.18a.33.33,0,0,1,.19-.56l.26,0a.34.34,0,0,0,.24-.18l.12-.24A.33.33,0,0,1,267,935.57Z" transform="translate(-181.99 -41.46)"/><path class="cls-1" d="M346.79,936.73l.12.24a.32.32,0,0,0,.24.18l.26,0a.33.33,0,0,1,.19.56l-.19.19a.34.34,0,0,0-.1.29l.05.26a.33.33,0,0,1-.48.35l-.23-.13a.34.34,0,0,0-.31,0l-.23.13a.33.33,0,0,1-.48-.35l0-.26a.33.33,0,0,0-.09-.29l-.19-.19a.33.33,0,0,1,.18-.56l.26,0a.34.34,0,0,0,.25-.18l.12-.24A.33.33,0,0,1,346.79,936.73Z" transform="translate(-181.99 -41.46)"/><path class="cls-1" d="M298.58,1001.51l.12.23a.33.33,0,0,0,.24.19l.26,0a.34.34,0,0,1,.19.57l-.19.18a.36.36,0,0,0-.1.29l0,.26a.33.33,0,0,1-.48.35l-.23-.12a.34.34,0,0,0-.31,0l-.23.12a.33.33,0,0,1-.48-.35l0-.26a.35.35,0,0,0-.09-.29l-.19-.18a.33.33,0,0,1,.18-.57l.26,0a.35.35,0,0,0,.25-.19l.12-.23A.33.33,0,0,1,298.58,1001.51Z" transform="translate(-181.99 -41.46)"/><path class="cls-1" d="M277.62,962.11l.12.24a.36.36,0,0,0,.25.18l.26,0a.33.33,0,0,1,.18.56l-.18.18a.34.34,0,0,0-.1.3l0,.25a.33.33,0,0,1-.48.35l-.23-.12a.34.34,0,0,0-.31,0l-.23.12a.33.33,0,0,1-.48-.35l.05-.25a.34.34,0,0,0-.1-.3l-.19-.18a.33.33,0,0,1,.19-.56l.26,0a.38.38,0,0,0,.25-.18l.11-.24A.33.33,0,0,1,277.62,962.11Z" transform="translate(-181.99 -41.46)"/><path class="cls-1" d="M351,1067.35l.12.24a.34.34,0,0,0,.25.18l.26,0a.33.33,0,0,1,.18.56l-.19.18a.33.33,0,0,0-.09.3l0,.26a.33.33,0,0,1-.48.34l-.23-.12a.34.34,0,0,0-.31,0l-.23.12a.33.33,0,0,1-.48-.34l0-.26a.33.33,0,0,0-.09-.3l-.19-.18a.33.33,0,0,1,.18-.56l.26,0a.34.34,0,0,0,.25-.18l.12-.24A.33.33,0,0,1,351,1067.35Z" transform="translate(-181.99 -41.46)"/><path class="cls-1" d="M418,1069.29l-.11-.24a.34.34,0,0,0-.25-.18l-.26,0a.33.33,0,0,1-.18-.56l.18-.19a.31.31,0,0,0,.1-.29l-.05-.26a.34.34,0,0,1,.48-.35l.24.13a.32.32,0,0,0,.3,0l.24-.13a.34.34,0,0,1,.48.35l-.05.26a.31.31,0,0,0,.1.29l.18.19a.33.33,0,0,1-.18.56l-.26,0a.34.34,0,0,0-.25.18l-.11.24A.34.34,0,0,1,418,1069.29Z" transform="translate(-181.99 -41.46)"/><path class="cls-1" d="M446.33,1076.17l-.12-.23a.31.31,0,0,0-.25-.18l-.26,0a.33.33,0,0,1-.18-.57l.19-.18a.31.31,0,0,0,.09-.29l0-.26a.33.33,0,0,1,.48-.35l.23.12a.34.34,0,0,0,.31,0l.23-.12a.33.33,0,0,1,.48.35l0,.26a.31.31,0,0,0,.09.29l.19.18a.33.33,0,0,1-.18.57l-.26,0a.31.31,0,0,0-.25.18l-.12.23A.33.33,0,0,1,446.33,1076.17Z" transform="translate(-181.99 -41.46)"/><path class="cls-1" d="M434.72,1044.93l-.11-.24a.38.38,0,0,0-.25-.18l-.26,0a.33.33,0,0,1-.19-.56l.19-.18a.37.37,0,0,0,.1-.3l-.05-.25a.33.33,0,0,1,.48-.35l.23.12a.34.34,0,0,0,.31,0l.23-.12a.33.33,0,0,1,.48.35l0,.25a.36.36,0,0,0,.09.3l.19.18a.33.33,0,0,1-.18.56l-.26,0a.36.36,0,0,0-.25.18l-.12.24A.33.33,0,0,1,434.72,1044.93Z" transform="translate(-181.99 -41.46)"/><path class="cls-1" d="M430.52,914.31l-.12-.24a.34.34,0,0,0-.25-.18l-.26,0a.33.33,0,0,1-.18-.56l.19-.18a.33.33,0,0,0,.09-.3l0-.25a.33.33,0,0,1,.48-.35l.23.12a.34.34,0,0,0,.31,0l.23-.12a.33.33,0,0,1,.48.35l0,.25a.36.36,0,0,0,.09.3l.19.18a.33.33,0,0,1-.18.56l-.26,0a.36.36,0,0,0-.25.18l-.12.24A.33.33,0,0,1,430.52,914.31Z" transform="translate(-181.99 -41.46)"/><path class="cls-1" d="M298.06,917.84l-.24.11a.34.34,0,0,0-.18.25l0,.26a.33.33,0,0,1-.56.18l-.19-.18a.31.31,0,0,0-.29-.1l-.26,0a.34.34,0,0,1-.35-.48l.13-.24a.32.32,0,0,0,0-.3l-.13-.24a.34.34,0,0,1,.35-.48l.26.05a.31.31,0,0,0,.29-.1l.19-.19a.33.33,0,0,1,.56.19l0,.26a.35.35,0,0,0,.18.25l.24.11A.34.34,0,0,1,298.06,917.84Z" transform="translate(-181.99 -41.46)"/><path class="cls-1" d="M274.68,1060l-.23.12a.31.31,0,0,0-.18.25l0,.26a.33.33,0,0,1-.56.18l-.19-.19a.33.33,0,0,0-.29-.09l-.26,0a.33.33,0,0,1-.35-.48l.12-.23a.34.34,0,0,0,0-.31l-.12-.23a.33.33,0,0,1,.35-.48l.26.05a.34.34,0,0,0,.29-.1l.19-.19a.33.33,0,0,1,.56.19l0,.26a.3.3,0,0,0,.18.24l.23.12A.33.33,0,0,1,274.68,1060Z" transform="translate(-181.99 -41.46)"/><path class="cls-1" d="M261,1015.79l.12.23a.31.31,0,0,0,.25.18l.26,0a.33.33,0,0,1,.18.56l-.19.19a.31.31,0,0,0-.09.29l0,.26a.33.33,0,0,1-.48.35l-.23-.13a.34.34,0,0,0-.31,0l-.23.13a.33.33,0,0,1-.48-.35l0-.26a.31.31,0,0,0-.09-.29l-.19-.19a.33.33,0,0,1,.18-.56l.26,0a.31.31,0,0,0,.25-.18l.12-.23A.33.33,0,0,1,261,1015.79Z" transform="translate(-181.99 -41.46)"/><path class="cls-1" d="M308.47,967.63l.23-.11a.31.31,0,0,0,.18-.25l0-.26a.33.33,0,0,1,.56-.18l.19.18a.31.31,0,0,0,.29.1l.26-.05a.34.34,0,0,1,.35.48l-.13.24a.32.32,0,0,0,0,.3l.13.24a.34.34,0,0,1-.35.48l-.26,0a.31.31,0,0,0-.29.1l-.19.19a.33.33,0,0,1-.56-.19l0-.26a.31.31,0,0,0-.18-.25l-.23-.11A.33.33,0,0,1,308.47,967.63Z" transform="translate(-181.99 -41.46)"/></svg>